<svg width="408" height="102" viewBox="0 0 408 102" fill="none" xmlns="http://www.w3.org/2000/svg">
<g clip-path="url(#clip0_225_67)">
<path d="M122.314 68.5456C122.014 67.4726 122.07 66.4616 122.484 65.5126C122.897 64.5633 123.573 63.8824 124.512 63.4697C125.564 63.0158 126.56 63.0364 127.499 63.5317C128.476 63.9856 129.171 64.6872 129.584 65.6362C130.749 68.3186 132.834 69.6597 135.84 69.6597C137.531 69.6597 138.883 69.2472 139.898 68.4218C140.949 67.5964 141.494 66.503 141.532 65.1411C141.569 64.0682 141.25 63.1396 140.574 62.3557C139.935 61.5715 138.695 60.8905 136.854 60.3128L132.177 58.8893C125.489 56.6196 122.145 52.5755 122.145 46.7568C122.145 43.0016 123.423 39.9479 125.978 37.5956C128.532 35.2022 131.707 34.0054 135.502 34.0054C138.244 34.0054 140.63 34.6245 142.659 35.8624C144.725 37.1005 146.285 38.8542 147.337 41.124C147.787 42.1968 147.881 43.1666 147.618 44.0332C147.355 44.8998 146.848 45.6013 146.097 46.1379C144.143 47.4996 142.415 47.1489 140.912 45.0854C139.484 43.1048 137.643 42.1144 135.389 42.1144C133.961 42.1144 132.759 42.5271 131.782 43.3522C130.843 44.1776 130.373 45.2299 130.373 46.5091C130.373 48.5312 131.763 49.9757 134.544 50.8423L139.165 52.3278C146.454 54.6387 150.004 58.9305 149.816 65.2029C149.779 67.8853 149.065 70.2168 147.675 72.1976C146.285 74.1373 144.556 75.5402 142.49 76.4068C140.461 77.2734 138.244 77.7067 135.84 77.7067C132.458 77.7067 129.565 76.8815 127.161 75.2307C124.794 73.5801 123.178 71.3516 122.314 68.5456Z" fill="#222222"/>
<path d="M175.313 52.3279V51.7707C175.351 50.7391 175.745 49.8519 176.497 49.1089C177.286 48.325 178.206 47.9329 179.258 47.9329C180.348 47.9329 181.268 48.3044 182.02 49.0471C182.809 49.7899 183.203 50.6979 183.203 51.7707V73.6214C183.203 74.6944 182.809 75.6022 182.02 76.345C181.268 77.0877 180.348 77.4592 179.258 77.4592C178.206 77.4592 177.286 77.0877 176.497 76.345C175.745 75.561 175.351 74.653 175.313 73.6214V73.0642C174.487 74.55 173.341 75.7054 171.875 76.5306C170.448 77.3148 168.964 77.7067 167.423 77.7067C163.892 77.7067 160.867 76.3656 158.35 73.6832C155.87 70.9598 154.63 67.287 154.63 62.6651C154.63 58.0845 155.87 54.4531 158.35 51.7707C160.867 49.0471 163.892 47.6854 167.423 47.6854C168.626 47.6854 169.997 48.0361 171.537 48.7377C173.078 49.4392 174.336 50.6359 175.313 52.3279ZM168.945 70.0312C170.711 70.0312 172.214 69.309 173.453 67.8647C174.731 66.3792 175.37 64.6666 175.37 62.727C175.37 60.7875 174.731 59.0956 173.453 57.6512C172.214 56.1657 170.711 55.4227 168.945 55.4227C167.066 55.4227 165.564 56.1449 164.436 57.5892C163.309 58.9923 162.746 60.7049 162.746 62.727C162.746 64.749 163.309 66.4822 164.436 67.9265C165.564 69.3296 167.066 70.0312 168.945 70.0312Z" fill="#222222"/>
<path d="M198.854 36.0482V73.6214C198.854 74.6944 198.46 75.6022 197.671 76.345C196.919 77.0877 195.998 77.4592 194.91 77.4592C193.858 77.4592 192.937 77.0877 192.148 76.345C191.397 75.561 191.002 74.653 190.965 73.6214V36.0482C191.002 35.0164 191.397 34.1292 192.148 33.3864C192.937 32.6025 193.858 32.2104 194.91 32.2104C195.998 32.2104 196.919 32.5817 197.671 33.3246C198.46 34.0674 198.854 34.9752 198.854 36.0482Z" fill="#222222"/>
<path d="M213.276 60.1272H224.661C224.472 58.394 223.872 57.0941 222.857 56.2275C221.88 55.3197 220.641 54.8658 219.137 54.8658C215.869 54.8658 213.916 56.6196 213.276 60.1272ZM229.168 69.3502C229.882 70.2994 230.127 71.3517 229.901 72.5071C229.714 73.6214 229.132 74.488 228.155 75.1069C225.75 76.8401 222.725 77.7067 219.081 77.7067C215.211 77.7067 211.943 76.3038 209.275 73.4975C206.645 70.6915 205.33 67.0599 205.33 62.6031C205.33 58.1463 206.645 54.5561 209.275 51.8325C211.943 49.0677 215.211 47.6854 219.081 47.6854C222.913 47.6854 226.107 49.1089 228.662 51.9564C231.255 54.7626 232.55 58.394 232.55 62.8508C232.55 63.5935 232.307 64.2333 231.817 64.7696C231.328 65.2649 230.766 65.5126 230.127 65.5126H213.164C213.351 67.0807 214.084 68.2774 215.362 69.1028C216.677 69.8867 218.104 70.2788 219.645 70.2788C221.486 70.2788 223.008 69.8249 224.209 68.9169C225.148 68.2568 226.051 67.9885 226.914 68.1124C227.817 68.1948 228.567 68.6075 229.168 69.3502Z" fill="#222222"/>
<path d="M237.516 71.5787C237.253 70.6709 237.253 69.8043 237.516 68.9789C237.818 68.1535 238.288 67.5758 238.926 67.2457C239.865 66.8742 240.674 66.8124 241.349 67.0599C242.062 67.2663 242.663 67.679 243.153 68.298C244.58 69.9899 246.233 70.8359 248.112 70.8359C250.365 70.8359 251.493 70.2376 251.493 69.0407C251.493 68.463 251.305 68.0297 250.93 67.7408C250.591 67.4108 249.915 67.0599 248.901 66.6886L245.914 65.5125C244.073 64.811 242.571 64.0474 241.405 63.2222C240.241 62.3969 239.432 61.4891 238.982 60.4986C238.568 59.5082 238.305 58.724 238.193 58.1463C238.117 57.5686 238.081 56.8052 238.081 55.856C238.081 53.7101 239.094 51.8119 241.124 50.1613C243.153 48.4694 245.539 47.6234 248.281 47.6234C252.939 47.6234 256.097 49.2121 257.748 52.3896C258.2 53.3388 258.349 54.226 258.2 55.0514C258.05 55.8354 257.674 56.4131 257.073 56.7846C255.495 57.8162 253.823 57.5892 252.057 56.1037C251.005 55.2371 249.953 54.8038 248.901 54.8038C246.985 54.8038 246.026 55.3815 246.026 56.537C246.026 57.3623 246.778 58.0433 248.281 58.5796L252.281 60.0653C253.786 60.6017 255.045 61.2826 256.058 62.108C257.073 62.892 257.806 63.7173 258.256 64.5839C258.707 65.4505 259.007 66.2141 259.157 66.8743C259.345 67.5346 259.44 68.1535 259.44 68.7313C259.44 71.6199 258.293 73.8484 256.002 75.4165C253.747 76.9845 251.098 77.7687 248.056 77.7687C245.726 77.7687 243.547 77.2321 241.519 76.1593C239.488 75.0863 238.156 73.5595 237.516 71.5787Z" fill="#222222"/>
<path d="M271.958 62.789C271.958 64.7284 272.579 66.3172 273.818 67.5552C275.096 68.7519 276.618 69.3502 278.383 69.3502C279.735 69.3502 281.033 68.9789 282.272 68.2362C283.061 67.7409 283.906 67.4932 284.807 67.4932C285.747 67.4932 286.611 67.8441 287.4 68.5456C288.189 69.4122 288.527 70.5057 288.415 71.8264C288.34 73.1469 287.831 74.1579 286.893 74.8594C284.488 76.7577 281.651 77.7067 278.383 77.7067C274.476 77.7067 271.094 76.3244 268.24 73.5596C265.384 70.7945 263.957 67.2043 263.957 62.789V62.6031C263.957 58.1878 265.384 54.5976 268.24 51.8325C271.094 49.0677 274.476 47.6854 278.383 47.6854C281.651 47.6854 284.488 48.6344 286.893 50.5327C287.831 51.2342 288.34 52.2452 288.415 53.5657C288.527 54.8864 288.189 55.9799 287.4 56.8465C286.611 57.548 285.747 57.8989 284.807 57.8989C283.906 57.8989 283.061 57.6512 282.272 57.1559C281.033 56.4132 279.735 56.0419 278.383 56.0419C276.618 56.0419 275.096 56.6608 273.818 57.8989C272.579 59.0956 271.958 60.6637 271.958 62.6031V62.789Z" fill="#222222"/>
<path d="M314.007 52.3279V51.7707C314.046 50.7391 314.44 49.8519 315.191 49.1089C315.98 48.325 316.902 47.9329 317.954 47.9329C319.042 47.9329 319.963 48.3044 320.715 49.0471C321.504 49.7899 321.898 50.6979 321.898 51.7707V73.6214C321.898 74.6944 321.504 75.6022 320.715 76.345C319.963 77.0877 319.042 77.4592 317.954 77.4592C316.902 77.4592 315.98 77.0877 315.191 76.345C314.44 75.561 314.046 74.653 314.007 73.6214V73.0642C313.182 74.55 312.035 75.7054 310.571 76.5306C309.142 77.3148 307.659 77.7067 306.118 77.7067C302.587 77.7067 299.563 76.3656 297.045 73.6832C294.564 70.9598 293.325 67.287 293.325 62.6651C293.325 58.0845 294.564 54.4531 297.045 51.7707C299.563 49.0471 302.587 47.6854 306.118 47.6854C307.321 47.6854 308.692 48.0361 310.233 48.7377C311.772 49.4392 313.031 50.6359 314.007 52.3279ZM307.64 70.0312C309.405 70.0312 310.908 69.309 312.149 67.8647C313.425 66.3792 314.065 64.6666 314.065 62.727C314.065 60.7875 313.425 59.0956 312.149 57.6512C310.908 56.1657 309.405 55.4227 307.64 55.4227C305.76 55.4227 304.258 56.1449 303.13 57.5892C302.003 58.9923 301.44 60.7049 301.44 62.727C301.44 64.749 302.003 66.4822 303.13 67.9265C304.258 69.3296 305.76 70.0312 307.64 70.0312Z" fill="#222222"/>
<path d="M370.969 60.7461V73.6213C370.969 74.6944 370.574 75.6022 369.785 76.3449C369.033 77.0877 368.113 77.4592 367.024 77.4592C365.972 77.4592 365.052 77.0877 364.263 76.3449C363.511 75.561 363.116 74.653 363.079 73.6213V61.7365C363.079 59.9209 362.646 58.5178 361.782 57.5274C360.956 56.4957 359.924 55.9798 358.682 55.9798C357.367 55.9798 356.298 56.4751 355.471 57.4656C354.645 58.4146 354.231 59.8795 354.231 61.8603V73.6213C354.231 74.6944 353.837 75.6022 353.048 76.3449C352.296 77.0877 351.375 77.4592 350.286 77.4592C349.235 77.4592 348.314 77.0877 347.525 76.3449C346.773 75.561 346.379 74.653 346.342 73.6213V61.5509C346.342 59.8177 345.909 58.456 345.044 57.4656C344.219 56.4751 343.203 55.9798 342.001 55.9798C340.686 55.9798 339.597 56.4545 338.733 57.4035C337.869 58.3116 337.437 59.7971 337.437 61.8603V73.6213C337.437 74.6944 337.043 75.6022 336.254 76.3449C335.502 77.0877 334.581 77.4592 333.491 77.4592C332.439 77.4592 331.518 77.0877 330.73 76.3449C329.979 75.561 329.585 74.653 329.546 73.6213V51.7707C329.585 50.7391 329.979 49.8519 330.73 49.1089C331.518 48.3249 332.439 47.9328 333.491 47.9328C334.581 47.9328 335.502 48.3043 336.254 49.0471C337.043 49.7899 337.437 50.6979 337.437 51.7707V52.4517C338.039 50.9659 338.959 49.8105 340.199 48.9853C341.475 48.1187 342.848 47.6854 344.311 47.6854C346.454 47.6854 348.219 48.1187 349.61 48.9853C351 49.8105 352.127 51.193 352.992 53.1324C353.856 51.1104 355.02 49.6866 356.486 48.8615C357.95 48.0361 359.34 47.6234 360.655 47.6234C363.849 47.6234 366.347 48.7376 368.151 50.9659C369.992 53.1944 370.932 56.4545 370.969 60.7461Z" fill="#222222"/>
<path d="M386.399 52.3279C387.378 50.6359 388.635 49.4392 390.176 48.7377C391.717 48.0361 393.088 47.6854 394.291 47.6854C397.821 47.6854 400.826 49.0471 403.307 51.7707C405.825 54.4531 407.084 58.0845 407.084 62.6651C407.084 67.287 405.825 70.9598 403.307 73.6832C400.826 76.3656 397.821 77.7067 394.291 77.7067C392.749 77.7067 391.247 77.3148 389.781 76.5306C388.354 75.7054 387.227 74.55 386.399 73.0643V87.425C386.363 88.4567 385.949 89.3439 385.16 90.0868C384.41 90.8708 383.507 91.2629 382.455 91.2629C381.366 91.2629 380.426 90.8914 379.637 90.1486C378.885 89.4059 378.51 88.4981 378.51 87.425V51.7707C378.51 50.6979 378.885 49.7899 379.637 49.0471C380.426 48.3044 381.366 47.9329 382.455 47.9329C383.507 47.9329 384.41 48.325 385.16 49.1089C385.949 49.8519 386.363 50.7391 386.399 51.7707V52.3279ZM392.769 55.4227C391.003 55.4227 389.482 56.1657 388.203 57.6512C386.964 59.0956 386.343 60.7875 386.343 62.727C386.343 64.6666 386.964 66.3792 388.203 67.8647C389.482 69.309 391.003 70.0312 392.769 70.0312C394.646 70.0312 396.149 69.3296 397.276 67.9265C398.403 66.4822 398.968 64.749 398.968 62.727C398.968 60.7049 398.403 58.9923 397.276 57.5892C396.149 56.1449 394.646 55.4227 392.769 55.4227Z" fill="#222222"/>
<path d="M0 47.6897C0 44.7623 1.21069 41.9781 3.31967 40.0558L40.059 6.56793C43.6983 3.25067 49.1168 3.25067 52.7561 6.56793L89.4955 40.0558C91.6045 41.9781 92.8152 44.7623 92.8152 47.6897V91.8781C92.8152 97.4683 88.4865 102 83.1469 102H9.66825C4.32863 102 0 97.4683 0 91.8781V47.6897Z" fill="url(#paint0_linear_225_67)"/>
<path d="M46.4075 4.07999C48.3061 4.17111 50.6714 4.67795 52.2084 6.11999L87.9809 38.76C90.8814 40.8 92.8151 43.86 92.8151 46.92V92.3606C92.8151 97.6844 88.887 102 84.0415 102H46.4075V4.07999Z" fill="url(#paint1_linear_225_67)"/>
<path d="M46.4075 4.07999C48.3061 4.17111 50.6714 4.67795 52.2084 6.11999L87.9809 38.76C90.8814 40.8 92.8151 43.86 92.8151 46.92V92.3606C92.8151 97.6844 88.887 102 84.0415 102H46.4075V4.07999Z" fill="url(#paint2_linear_225_67)" fill-opacity="0.4"/>
</g>
<defs>
<linearGradient id="paint0_linear_225_67" x1="46.4076" y1="0.781222" x2="46.4076" y2="140.908" gradientUnits="userSpaceOnUse">
<stop stop-color="#0396FF"/>
<stop offset="1" stop-color="#197DD2"/>
</linearGradient>
<linearGradient id="paint1_linear_225_67" x1="46.0227" y1="-4.17467" x2="46.0227" y2="142.813" gradientUnits="userSpaceOnUse">
<stop stop-color="#0396FF"/>
<stop offset="1" stop-color="#197DD2"/>
</linearGradient>
<linearGradient id="paint2_linear_225_67" x1="69.6113" y1="7.15727e-05" x2="69.6113" y2="102" gradientUnits="userSpaceOnUse">
<stop stop-color="white"/>
<stop offset="1" stop-color="white" stop-opacity="0"/>
</linearGradient>
<clipPath id="clip0_225_67">
<rect width="408" height="102" fill="white"/>
</clipPath>
</defs>
</svg>
